<?xml version="1.0" encoding="utf-8"?>
<!-- Generator: Adobe Illustrator 24.0.1, SVG Export Plug-In . SVG Version: 6.00 Build 0)  -->
<svg version="1.1" id="OBJECTS" xmlns="http://www.w3.org/2000/svg" xmlns:xlink="http://www.w3.org/1999/xlink" x="0px" y="0px"
	 viewBox="0 0 500 500" style="enable-background:new 0 0 500 500;" xml:space="preserve">
<style type="text/css">
	.st0{fill:none;stroke:#452F27;stroke-width:1.5884;stroke-linecap:round;stroke-miterlimit:10;}
	.st1{fill:#896B45;}
	.st2{fill:none;stroke:#452F27;stroke-width:1.9728;stroke-miterlimit:10;}
	.st3{fill:#F4F1EA;}
	.st4{fill:none;}
	.st5{font-family:'ArialMT';}
	.st6{font-size:12px;}
	.st7{fill:#452F27;}
	.st8{font-size:33.715px;}
	.st9{display:none;}
	.st10{display:inline;fill:none;stroke:#452F27;stroke-width:1.4335;stroke-linecap:round;stroke-miterlimit:10;}
	.st11{fill:none;stroke:#452F27;stroke-width:1.4335;stroke-linecap:round;stroke-miterlimit:10;}
	.st12{font-size:19.6718px;}
</style>
<g>
	<g>
		<line class="st0" x1="96.2" y1="363.4" x2="67.8" y2="355.9"/>
		<line class="st0" x1="94" y1="371.6" x2="78.4" y2="367.8"/>
		<line class="st0" x1="97.9" y1="354.9" x2="82.3" y2="351.1"/>
	</g>
	<g>
		<g>
			<g>
				<g>
					<path class="st1" d="M52.6,323.8c5.1-14,10.4-27.8,16.1-41.6C57,272.6,45.1,263.4,33,254.3c143-39.2,291.1-39.2,434.1,0
						c-12.1,9-24,18.3-35.7,27.9c5.6,13.8,11,27.6,16.1,41.6C317.2,288.2,182.8,288.2,52.6,323.8z"/>
					<path class="st2" d="M458.9,334.6c-137.4-40.4-280.4-40.4-417.8,0c5.7-16.9,11.8-33.5,18.3-50.1
						c-14.2-11.3-28.7-22.2-43.6-32.7c153.8-45.4,314.4-45.4,468.2,0c-14.8,10.5-29.3,21.4-43.6,32.7
						C447.1,301.1,453.2,317.7,458.9,334.6z"/>
					<g>
						<g>
							<path class="st3" d="M101.9,256.6c2.3-0.9,5.8-1.8,9.1-2.4c5.1-0.9,8.6-0.6,11.2,0.8c2.1,1.2,3.5,3.3,4,5.8
								c0.7,4.4-1.8,7.8-5.5,9.7c0,0.1,0,0.1,0,0.1c3,0.4,5,2.5,6.5,5.8c1.9,4.4,3.3,7.5,4.3,8.7c-1.9,0.3-2.9,0.5-4.8,0.8
								c-0.7-0.8-2-3.6-3.7-7.5c-1.9-4.4-4.1-5.8-8.4-5.2c-1.8,0.3-2.6,0.5-4.4,0.8c1.1,5.7,1.6,8.6,2.7,14.4
								c-1.8,0.3-2.8,0.5-4.6,0.9C106.1,278.4,104,267.5,101.9,256.6z M109.5,270.8c1.9-0.4,2.9-0.5,4.8-0.9c5-0.9,7.8-4,7.1-7.8
								c-0.7-4.3-4.5-5.6-9.6-4.7c-2.3,0.4-3.9,0.9-4.6,1.3C108.2,263.6,108.6,266,109.5,270.8z"/>
							<path class="st3" d="M153.1,266.1c-5.7,0.7-8.5,1.1-14.2,2c0.7,4.8,1.1,7.2,1.8,12c6.2-0.9,9.3-1.3,15.6-2.1
								c0.2,1.5,0.3,2.2,0.5,3.6c-8,1-12.1,1.6-20.1,2.8c-1.7-11.1-3.4-22.2-5.1-33.4c8.1-1.2,12.1-1.8,20.2-2.8
								c0.2,1.5,0.3,2.2,0.5,3.6c-6.1,0.8-9.2,1.2-15.3,2.1c0.6,4.2,0.9,6.3,1.6,10.6c5.7-0.8,8.5-1.2,14.2-2
								C152.8,263.9,152.9,264.6,153.1,266.1z"/>
							<path class="st3" d="M161.5,275.6c2.2,0.9,5.4,1.6,8.6,1.2c4.8-0.5,7.3-3.1,7-6.5c-0.3-3.1-2.5-4.8-7.5-6
								c-6.1-1.4-10.2-3.7-10.8-8.4c-0.6-5.2,3.7-9.7,11-10.5c3.8-0.4,6.7,0.1,8.4,0.8c-0.4,1.5-0.6,2.2-1,3.7
								c-1.3-0.5-3.9-1.2-7.2-0.9c-5.1,0.5-6.7,3.5-6.5,5.8c0.4,3.1,2.8,4.4,8,5.7c6.4,1.6,9.8,4,10.3,9c0.5,5.2-3.2,10-11.7,10.9
								c-3.5,0.4-7.3-0.1-9.4-1.1C161,277.9,161.2,277.1,161.5,275.6z"/>
							<path class="st3" d="M193.6,247.7c-4.5,0.3-6.8,0.5-11.4,0.9c-0.1-1.5-0.2-2.2-0.3-3.7c11.1-1,16.7-1.4,27.8-1.9
								c0.1,1.5,0.1,2.2,0.2,3.7c-4.6,0.2-6.9,0.4-11.4,0.7c0.7,10,1.3,20,2,30c-1.9,0.1-2.8,0.2-4.7,0.3
								C195,267.7,194.3,257.7,193.6,247.7z"/>
							<path class="st3" d="M216.8,265.8c-1.3,4.3-2,6.5-3.3,10.8c-1.9,0.1-2.9,0.1-4.8,0.3c3.5-11.5,7.1-22.9,10.9-34.3
								c2.3-0.1,3.5-0.1,5.9-0.2c4.6,11.1,9.1,22.2,13.3,33.4c-2,0-3,0-5,0.1c-1.6-4.2-2.5-6.3-4.1-10.5
								C224.5,265.5,221.9,265.6,216.8,265.8z M228.6,262c-1.5-3.8-2.3-5.8-3.9-9.6c-0.9-2.2-1.5-4.2-2.1-6.1h-0.1
								c-0.5,2-1,4.1-1.7,6.2c-1.3,4-1.9,5.9-3.2,9.9C222,262.2,224.2,262.1,228.6,262z"/>
							<path class="st3" d="M247.1,242c0,8,0,12,0.1,20c0,7.6,3.6,10.7,8.5,10.8c5.4,0,8.9-3.2,9-10.6c0.2-8,0.2-12,0.4-20
								c2,0,2.9,0.1,4.9,0.1c-0.2,7.9-0.3,11.8-0.5,19.7c-0.3,10.4-6.2,14.5-14,14.4c-7.4-0.1-12.9-3.9-13.1-14.4
								c-0.1-8-0.1-11.9-0.2-19.9C244.1,242,245.1,242,247.1,242z"/>
							<path class="st3" d="M278.3,242.9c2.5-0.4,6-0.5,9.3-0.3c5.2,0.3,8.5,1.3,10.7,3.4c1.8,1.6,2.7,4,2.5,6.6
								c-0.3,4.4-3.5,7.2-7.5,8.2c0,0.1,0,0.1,0,0.2c2.8,1.1,4.3,3.6,5,7.1c0.9,4.8,1.5,8.1,2.2,9.4c-1.9-0.1-2.9-0.2-4.8-0.3
								c-0.5-1-1.2-4-1.9-8.2c-0.8-4.7-2.7-6.6-7-6.9c-1.8-0.1-2.7-0.1-4.5-0.2c-0.2,5.8-0.4,8.8-0.6,14.6c-1.9-0.1-2.8-0.1-4.6-0.2
								C277.5,265.1,277.9,254,278.3,242.9z M282.5,258.5c1.9,0.1,2.9,0.1,4.9,0.2c5.1,0.2,8.5-2.1,8.7-5.9c0.3-4.3-3.1-6.5-8.2-6.8
								c-2.3-0.1-4,0-4.8,0.2C282.8,251.1,282.7,253.5,282.5,258.5z"/>
							<path class="st3" d="M312.7,267.7c-1.9,4.1-2.8,6.2-4.6,10.3c-1.9-0.2-2.9-0.2-4.8-0.4c4.9-11,9.9-21.8,15.2-32.6
								c2.3,0.2,3.5,0.3,5.8,0.5c3.2,11.6,6.2,23.2,9,34.9c-2-0.2-3-0.3-4.9-0.5c-1.1-4.4-1.6-6.6-2.8-11
								C320.5,268.4,317.9,268.1,312.7,267.7z M325,265.4c-1-4-1.6-6-2.7-10c-0.6-2.3-1-4.3-1.4-6.3h-0.1c-0.7,1.9-1.5,3.9-2.4,5.9
								c-1.8,3.8-2.7,5.6-4.4,9.4C318.4,264.8,320.6,265,325,265.4z"/>
							<path class="st3" d="M338.6,281c1.3-11.2,2.7-22.3,4-33.5c2.1,0.3,3.2,0.4,5.3,0.7c3.9,7.4,5.8,11.1,9.6,18.5
								c2.1,4.3,3.7,8.1,4.9,11.8h0.1c0.2-4.5,0.8-8.6,1.5-13.8c0.8-5.6,1.3-8.4,2.1-14c1.8,0.3,2.7,0.4,4.5,0.7
								c-1.7,11.1-3.5,22.2-5.2,33.3c-1.9-0.3-2.8-0.4-4.7-0.7c-3.5-7.5-5.3-11.2-9.1-18.6c-2-4.1-4-8.2-5.4-12.1
								c-0.1,0-0.1,0-0.2,0c-0.3,4.3-0.7,8.3-1.4,13.9c-0.7,5.7-1.1,8.6-1.8,14.3C341.2,281.3,340.3,281.2,338.6,281z"/>
							<path class="st3" d="M385.4,257.6c-4.5-0.8-6.8-1.2-11.3-1.9c0.2-1.5,0.4-2.2,0.6-3.7c11,1.8,16.5,2.8,27.5,5
								c-0.3,1.5-0.4,2.2-0.7,3.6c-4.5-0.9-6.8-1.3-11.3-2.2c-1.8,9.8-3.6,19.7-5.4,29.5c-1.9-0.3-2.8-0.5-4.6-0.8
								C381.9,277.3,383.7,267.4,385.4,257.6z"/>
						</g>
					</g>
					<path class="st3" d="M420.3,280.3c-1.3,5.6-7.2,9-13.3,7.7c-6-1.3-10-6.8-8.9-12.4s7.1-9.2,13.3-7.8
						C417.6,269.1,421.6,274.7,420.3,280.3z"/>
					<path class="st3" d="M99.8,275.2c1.1,5.6-2.9,11.2-8.9,12.5s-12-2.1-13.3-7.6c-1.3-5.6,2.7-11.3,8.9-12.6
						C92.7,266.1,98.7,269.6,99.8,275.2z"/>
				</g>
				<path id="SVGID_x5F_1_x5F_" class="st4" d="M97.6,225.4c101.1-19.1,198.2-19,290.8,0"/>
				<text transform="matrix(0.985 -0.1728 0.1728 0.985 107.1572 223.6481)" class="st5 st6"> </text>
				<text transform="matrix(0.9869 -0.1611 0.1611 0.9869 110.4343 223.0323)" class="st7 st5 st8">J</text>
				<text transform="matrix(0.9901 -0.1402 0.1402 0.9901 127.0707 220.3054)" class="st7 st5 st8">u</text>
				<text transform="matrix(0.9922 -0.1245 0.1245 0.9922 145.6421 217.7196)" class="st7 st5 st8">l</text>
				<text transform="matrix(0.9933 -0.1154 0.1154 0.9933 153.0742 216.7869)" class="st7 st5 st8">i</text>
				<text transform="matrix(0.9951 -9.918454e-02 9.918454e-02 0.9951 160.5098 215.8768)" class="st7 st5 st8">n</text>
				<text transform="matrix(0.9971 -7.557561e-02 7.557561e-02 0.9971 179.1689 214.0161)" class="st7 st5 st8">h</text>
				<text transform="matrix(0.9987 -5.143979e-02 5.143979e-02 0.9987 197.8672 212.5987)" class="st7 st5 st8">o</text>
				<text transform="matrix(0.9994 -3.425597e-02 3.425597e-02 0.9994 216.5951 211.6819)" class="st7 st5 st8">’</text>
				<text transform="matrix(0.9998 -1.810780e-02 1.810780e-02 0.9998 224.0804 211.3873)" class="st7 st5 st8">s</text>
				<text transform="matrix(1 -4.575853e-03 4.575853e-03 1 240.9359 211.1277)" class="st5 st6"> </text>
				<text transform="matrix(1 -8.050347e-05 8.050347e-05 1 244.27 211.1126)" class="st5 st6"> </text>
				<text transform="matrix(1 4.427562e-03 -4.427562e-03 1 247.6041 211.1126)" class="st5 st6"> </text>
				<text transform="matrix(1 8.948207e-03 -8.948207e-03 1 250.9379 211.1269)" class="st5 st6"> </text>
				<text class="st5 st6"> </text>
				<g class="st9">
					<line class="st10" x1="147.5" y1="206.4" x2="121.4" y2="210.3"/>
					<line class="st10" x1="146.4" y1="198.8" x2="132" y2="200.7"/>
					<line class="st10" x1="148.3" y1="214.2" x2="133.9" y2="216"/>
				</g>
				<g>
					<line class="st11" x1="344.5" y1="206.4" x2="370.6" y2="210.3"/>
					<line class="st11" x1="345.6" y1="198.8" x2="360" y2="200.7"/>
					<line class="st11" x1="343.7" y1="214.2" x2="358.1" y2="216"/>
				</g>
				<path id="SVGID_x5F_2_x5F_" class="st4" d="M65.8,367.3c54.6,39,281.6,41.6,349,0"/>
				<text transform="matrix(0.9432 0.3321 -0.3321 0.9432 87.6437 378.1378)" class="st5 st6"> </text>
				<text transform="matrix(0.9495 0.3137 -0.3137 0.9495 90.7889 379.245)" class="st5 st6"> </text>
				<text transform="matrix(0.9549 0.2968 -0.2968 0.9549 93.9545 380.2904)" class="st5 st6"> </text>
				<text transform="matrix(0.9596 0.2814 -0.2814 0.9596 97.1387 381.2796)" class="st5 st6"> </text>
				<text transform="matrix(0.9637 0.2671 -0.2671 0.9637 100.3384 382.2174)" class="st5 st6"> </text>
				<text class="st5 st6"> </text>
				<polygon class="st7" points="244.8,311.7 249.9,327.5 266.5,327.5 253.1,337.3 258.2,353.1 244.8,343.4 231.3,353.1 
					236.5,337.3 223,327.5 239.6,327.5 				"/>
				<polygon class="st7" points="196.2,315.9 199.5,328.8 212.8,329.6 201.6,336.7 204.9,349.7 194.6,341.2 183.4,348.3 
					188.3,335.9 178,327.4 191.3,328.3 				"/>
				<polygon class="st7" points="293.4,315.9 290.1,328.8 276.8,329.6 288,336.7 284.7,349.7 295,341.2 306.2,348.3 301.3,335.9 
					311.6,327.4 298.3,328.3 				"/>
				<path class="st7" d="M294.4,127c9-6.4,13.3-15.8,9.6-21.1c-3.7-5.3-14-4.4-23.1,2c-7.6,5.4-9.5,11.3-7.6,16.1l-58.5,39.4
					c-2.5,1.6-3.3,4.7-1.9,6.7c1.4,2,4.5,2.2,6.9,0.5l56.7-41.8C280.6,132.1,286.8,132.4,294.4,127z"/>
				<path class="st7" d="M205.7,114.8l-20.2-11.4c-0.6-0.4-1.2,0.5-0.6,1l22.2,16l-0.7,1L182.6,108c-0.6-0.4-1.2,0.5-0.6,1l22.2,16
					l-0.7,1l-23.8-13.4c-0.6-0.4-1.2,0.5-0.6,1l22.2,16l-0.7,1L176.8,117c-0.6-0.4-1.2,0.5-0.6,1l18.8,13.6c2.2,1.6,4.7,2.9,7.2,3.8
					l0.6,0.2c3,1.1,6.3,0.4,8.8-1.7l53.9,36.1c2.4,1.7,5.6,1.3,6.9-0.8s0.3-5-2.2-6.6l-55.4-33.8c0.8-3.1,0.1-6.4-2.1-8.6l-0.4-0.5
					C210.3,117.8,208.1,116.1,205.7,114.8z"/>
			</g>
			<g>
				<text transform="matrix(1 0 0 1 222.8152 122.3779)" class="st7 st5 st12">2021</text>
			</g>
		</g>
		<g>
			<line class="st0" x1="392.5" y1="363.4" x2="420.8" y2="355.9"/>
			<line class="st0" x1="394.7" y1="371.6" x2="410.3" y2="367.8"/>
			<line class="st0" x1="390.8" y1="354.9" x2="406.4" y2="351.1"/>
		</g>
	</g>
</g>
</svg>
